<svg id="Capa_1" data-name="Capa 1" xmlns="http://www.w3.org/2000/svg" viewBox="0 0 150 150"><defs><style>.cls-1{fill:#666;}</style></defs><path class="cls-1" d="M75.09,150c-11.81,0-23.62.06-35.42,0a39.44,39.44,0,0,1-8.41-.88c-10.61-2.48-17.72-10.17-18.53-21.42-1-13.77.66-27.31,7.29-39.77,5-9.4,12.79-14.87,23.6-15.21a16.06,16.06,0,0,1,7.1,2c4.27,2.08,8.18,5,12.54,6.81,10.3,4.39,20.21,2.64,29.66-2.84a30.89,30.89,0,0,0,4.41-2.87c4.74-4,10-3.74,15.49-2.2,7.79,2.18,13.38,7.13,17.07,14.16,6.91,13.12,8.67,27.31,7.13,41.78-1.27,11.94-11.59,20.07-24.46,20.45q-.59,0-1.17,0Z"/><path class="cls-1" d="M74.05,72.18A35.83,35.83,0,0,1,38,36.19a36.12,36.12,0,1,1,36.08,36Z"/></svg>