<svg id="Capa_1" data-name="Capa 1" xmlns="http://www.w3.org/2000/svg" viewBox="0 0 150 150"><defs><style>.cls-1{fill:#fff;}.cls-2{fill:#009aff;}</style></defs><circle class="cls-1" cx="75" cy="75" r="75"/><path class="cls-2" d="M63.9,122.25a4.17,4.17,0,0,1-2.82-1.09l-8-7.38-8.45,7.28a4.17,4.17,0,0,1-6.9-3.16V32.16A4.17,4.17,0,0,1,44.61,29l8.58,7.56,8.18-7.41a4.18,4.18,0,0,1,5.51-.07l8.16,7,8.3-7.32a4.17,4.17,0,0,1,5.58.06l8,7.37,8.45-7.28a4.17,4.17,0,0,1,6.9,3.16v85.74a4.17,4.17,0,0,1-6.93,3.12l-8.58-7.56-8.18,7.4a4.17,4.17,0,0,1-5.51.08l-8.16-7-8.3,7.33A4.2,4.2,0,0,1,63.9,122.25ZM53,109.17a4.18,4.18,0,0,1,2.82,1.1l8,7.37,8.29-7.32a4.21,4.21,0,0,1,5.48,0l8.15,7,8.19-7.4a4.17,4.17,0,0,1,5.56,0l8.25,7.28V32.81l-8.13,7a4.17,4.17,0,0,1-5.54-.09L86.1,32.36l-8.29,7.32a4.19,4.19,0,0,1-5.48,0l-8.15-7L56,40.13a4.17,4.17,0,0,1-5.56,0l-8.25-7.28v84.3l8.14-7A4.17,4.17,0,0,1,53,109.17Z"/><path class="cls-2" d="M77,65.05H53a2.25,2.25,0,0,1,0-4.5H77a2.25,2.25,0,0,1,0,4.5Z"/><path class="cls-2" d="M97.7,77.83H53a2.25,2.25,0,0,1,0-4.5H97.7a2.25,2.25,0,0,1,0,4.5Z"/><path class="cls-2" d="M97.7,91.29H53a2.25,2.25,0,1,1,0-4.5H97.7a2.25,2.25,0,0,1,0,4.5Z"/></svg>