<svg id="Capa_1" data-name="Capa 1" xmlns="http://www.w3.org/2000/svg" viewBox="0 0 150 150"><defs><style>.cls-1{fill:#666;}</style></defs><path class="cls-1" d="M65.65,51.71V70.12c-1.17.06-2.11.15-3.05.15q-28,0-55.93,0C1.47,70.27,0,68.82,0,63.71c0-3.51,0-7,0-10.54,0-7.54,3.53-11,11.16-11H38.68c-1.73-1.48-3-2.5-4.15-3.58a19.39,19.39,0,1,1,27.73-27c6.09,7.37,10.56,15.66,12.26,25.24A6.17,6.17,0,0,0,75.15,38c1.42-8.34,4.91-15.31,9.16-22,3.55-5.54,7.93-9.8,14.79-10.92a19.36,19.36,0,0,1,16.81,33c-1.31,1.25-2.73,2.38-4.63,4h4.62c8.11,0,16.21,0,24.31,0,5.87,0,9.65,3.88,9.74,9.77q.11,6.59,0,13.18c0,3.13-1.78,5.09-4.83,5.1-20.1.07-40.2,0-60.65,0V51.71ZM36.91,24.33c1.16,2.28,1.8,5.11,3.56,6.75A42,42,0,0,0,62.38,42c2.66.45,3.48-.42,3-3.09A45,45,0,0,0,54.69,17.13C51.82,14,48,13.24,44,14.73,40.16,16.12,37.58,20,36.91,24.33ZM101.18,14c-1.28.69-4.23,1.47-6,3.37A43.44,43.44,0,0,0,84.65,38.82c-.56,2.82.27,3.67,3.13,3.17a43,43,0,0,0,21.68-10.78c3.24-2.94,3.88-6.94,2.15-11C110,16.33,106.85,14.41,101.18,14Z"/><path class="cls-1" d="M65.46,79.85v65.4h-3q-20.94,0-41.87,0c-7.6,0-11.21-3.55-11.21-11q0-25.75,0-51.53V79.85Z"/><path class="cls-1" d="M84.6,79.76h55.84c.06,1,.15,1.81.15,2.66q0,25.92,0,51.83c0,7.35-3.61,11-11,11-14.92,0-29.85,0-45,0Z"/></svg>